<svg version="1.1" id="Layer_1" xmlns="http://www.w3.org/2000/svg" xmlns:xlink="http://www.w3.org/1999/xlink" x="0px" y="0px"
	 width="100%" viewBox="0 0 2000 2287" enable-background="new 0 0 2000 2287" xml:space="preserve">
<path fill="#31C48D" opacity="1.000000" stroke="none" 
	d="
M888.000000,2290.000000 
	C861.291565,2290.000000 834.583069,2290.000000 807.231140,2289.203125 
	C805.517395,2280.745850 805.173340,2272.798340 797.897217,2265.542236 
	C792.116455,2274.435791 787.058228,2282.217773 782.000000,2290.000000 
	C779.222229,2290.000000 776.444397,2290.000000 773.166626,2289.343262 
	C765.612671,2282.649414 758.575256,2276.593018 751.493164,2270.589111 
	C749.719482,2269.085449 747.896423,2267.601562 745.933350,2266.366943 
	C739.766235,2262.489014 734.980713,2262.954346 729.861572,2268.236816 
	C727.576416,2270.594971 725.783752,2273.453369 723.907654,2276.181152 
	C716.004578,2287.673340 705.593628,2290.306152 693.765320,2282.916504 
	C687.602173,2279.065918 682.210938,2273.980469 676.469360,2269.455078 
	C671.514709,2265.549805 666.800781,2261.278320 661.549500,2257.823486 
	C651.270630,2251.060791 641.654297,2252.980225 634.872681,2263.224854 
	C631.041809,2269.011719 628.109131,2275.389404 624.689453,2281.454590 
	C623.866150,2282.914307 622.715088,2284.189697 620.907104,2286.648193 
	C614.134155,2256.728271 616.617310,2226.814209 605.998535,2198.883789 
	C603.080688,2204.700684 601.640991,2210.735352 599.420593,2216.467529 
	C596.890503,2222.999512 597.586975,2231.292969 589.482788,2235.086670 
	C588.284607,2235.647705 587.763550,2238.671631 587.744507,2240.564209 
	C587.644653,2250.464111 587.568115,2260.376221 587.963440,2270.264893 
	C588.227051,2276.859863 589.293091,2283.422852 590.000000,2290.000000 
	C588.500000,2290.000000 587.000000,2290.000000 584.640625,2289.255859 
	C581.947571,2282.849609 579.310974,2277.309326 578.433960,2271.502930 
	C576.011353,2255.464355 574.277954,2239.320068 572.358093,2223.207520 
	C570.242432,2205.451416 568.376892,2187.664062 566.041626,2169.937500 
	C565.521606,2165.990479 563.495300,2162.241455 562.162598,2158.401367 
	C561.415649,2158.434326 560.668701,2158.467285 559.921692,2158.500488 
	C558.110901,2163.395508 556.041565,2168.213867 554.559937,2173.206543 
	C552.994934,2178.480469 552.757935,2183.464355 557.872864,2187.667480 
	C559.877136,2189.314453 561.283142,2192.827637 561.322754,2195.515137 
	C561.444214,2203.759033 561.288269,2212.080078 560.262390,2220.248047 
	C559.247070,2228.332031 558.725525,2228.266602 549.766418,2228.697266 
	C549.302673,2231.046631 548.497375,2233.559814 548.361877,2236.109131 
	C547.973633,2243.410889 547.497437,2250.738525 547.724426,2258.034912 
	C548.009155,2267.186523 546.346191,2275.864258 543.205872,2284.375977 
	C542.548950,2286.156494 542.389038,2288.120605 542.000000,2290.000000 
	C539.866638,2290.000000 537.733337,2290.000000 534.360962,2289.440430 
	C526.284912,2276.991455 524.929260,2262.360107 515.543213,2251.657959 
	C512.372437,2253.532715 510.011627,2254.928467 505.739044,2257.454590 
	C505.715057,2247.497314 505.773499,2239.325439 505.653473,2231.156250 
	C505.535675,2223.139404 508.111298,2214.937500 504.238007,2205.709717 
	C494.709045,2216.368652 491.761017,2229.363770 484.848694,2240.762207 
	C481.610596,2238.289795 478.726501,2236.157715 475.917511,2233.931396 
	C455.371368,2217.646973 432.829376,2205.296875 407.569641,2197.770020 
	C373.590973,2187.645020 338.666077,2186.424805 303.771393,2187.372070 
	C275.435425,2188.140869 247.203232,2188.157227 219.111847,2184.890869 
	C171.996323,2179.412109 131.437897,2159.935791 97.398956,2126.556396 
	C66.597427,2096.352051 43.750088,2060.696777 23.426353,2023.066650 
	C18.551741,2014.041260 17.438311,2005.159424 19.140436,1995.289917 
	C22.180605,1977.661621 24.952272,1959.979736 27.414351,1942.261597 
	C29.033112,1930.612671 28.662937,1919.343262 22.550463,1908.365845 
	C19.504358,1902.895386 18.524479,1895.649902 18.531279,1889.209473 
	C18.564995,1857.277344 17.965502,1825.409302 14.379003,1793.633545 
	C12.183507,1774.181641 9.737981,1754.708252 8.808270,1735.177734 
	C7.956922,1717.293213 8.680627,1699.308350 9.298613,1681.388062 
	C9.739697,1668.597412 11.895377,1656.119263 8.951846,1643.038330 
	C6.142432,1630.553589 5.293110,1617.237183 6.051895,1604.432617 
	C7.168178,1585.594849 10.252007,1566.855103 12.912593,1548.132568 
	C15.995699,1526.436523 19.463980,1504.849854 16.554192,1482.770996 
	C15.791702,1476.985474 16.427011,1470.716797 17.819517,1465.011597 
	C20.332336,1454.716309 26.131203,1451.653687 36.297337,1453.933594 
	C42.864559,1455.406616 44.704098,1454.755005 46.049702,1447.975464 
	C47.788445,1439.215088 49.381668,1430.263184 49.484215,1421.375854 
	C49.677498,1404.624756 52.053959,1388.271851 56.343121,1372.190186 
	C62.717880,1348.288818 74.067528,1327.859863 96.759514,1315.377930 
	C102.539642,1312.198486 107.738678,1307.919434 113.037346,1303.923706 
	C116.364388,1301.414551 118.171021,1298.209961 117.582329,1293.593018 
	C114.101387,1266.293335 110.277405,1239.019897 107.641014,1211.634399 
	C104.624207,1180.297485 102.072433,1148.883911 100.587547,1117.443604 
	C99.695587,1098.557861 100.580353,1079.515259 101.826355,1060.619507 
	C103.507248,1035.128296 106.019844,1009.679138 108.843620,984.286255 
	C109.463974,978.707703 109.062943,973.898926 107.059052,968.850525 
	C103.889061,960.864197 98.819427,954.375000 91.798134,949.619629 
	C83.659615,944.107544 78.382416,936.539490 75.932007,927.336060 
	C72.868004,915.827942 70.741524,904.070923 68.169769,892.430420 
	C67.601158,889.856750 66.862595,887.320618 66.096878,884.359558 
	C61.222000,887.486328 61.311325,894.109985 54.466827,893.739197 
	C53.750629,886.143127 52.898750,878.688477 52.371593,871.210938 
	C50.971363,851.349060 50.816631,831.329224 48.176712,811.638916 
	C41.690601,763.261108 34.083302,715.033630 26.932100,666.744873 
	C21.192532,627.988220 15.329266,589.249268 9.799480,550.462646 
	C7.974696,537.663452 7.020766,524.740112 5.665767,511.873871 
	C5.397251,509.324219 5.934839,506.264557 2.000000,506.000000 
	C2.000000,467.958221 2.000000,429.916412 2.786650,391.131683 
	C4.244649,389.340240 5.262925,388.373657 5.532794,387.230408 
	C7.820412,377.539032 9.436290,367.656891 12.257472,358.129211 
	C23.804382,319.133118 45.978497,288.140381 82.634819,269.190247 
	C99.413231,260.516357 117.074478,253.537384 134.403778,245.945969 
	C147.870636,240.046600 161.080490,233.906479 170.643494,222.031754 
	C172.206650,220.090714 174.895782,218.947388 177.225815,217.749054 
	C228.232819,191.516342 281.400696,170.638885 336.274841,154.097794 
	C420.387115,128.743225 506.433655,113.866035 594.012146,108.095268 
	C636.129761,105.320030 678.325378,103.197151 720.518494,102.259140 
	C757.129028,101.445236 793.786560,102.666771 830.422058,103.096748 
	C843.062317,103.245102 855.704346,103.576378 868.335815,104.072029 
	C899.896118,105.310463 931.446472,106.809372 963.009277,107.975616 
	C986.614319,108.847832 1010.233215,109.344414 1033.844849,110.044449 
	C1067.099365,111.030380 1100.348877,112.235619 1133.608765,112.981277 
	C1151.931030,113.392059 1170.270996,113.143372 1188.601318,112.998695 
	C1193.906616,112.956818 1199.314453,112.786964 1204.491821,111.754974 
	C1245.262939,103.628113 1286.072388,95.662018 1326.712402,86.914047 
	C1404.412354,70.188652 1481.810181,51.967239 1560.651733,41.090511 
	C1594.249634,36.455475 1627.922974,32.724594 1661.880005,31.931135 
	C1671.150269,31.714518 1680.873779,32.106686 1689.565186,29.485939 
	C1714.042847,22.105148 1738.099243,13.324289 1762.277222,4.966874 
	C1763.095581,4.684014 1763.436523,3.020151 1764.000000,2.000010 
	C1785.375122,2.000000 1806.750244,2.000000 1828.521973,2.616938 
	C1829.744141,3.772404 1830.499512,4.541657 1831.405029,4.815958 
	C1859.919800,13.453380 1881.212524,31.979443 1899.247559,54.752258 
	C1915.429077,75.184822 1928.051880,97.814804 1938.682129,121.538773 
	C1953.642090,154.925369 1967.865601,188.660828 1974.307495,224.915756 
	C1979.527100,254.291565 1984.324463,283.780365 1988.000854,313.381531 
	C1991.554321,341.992340 1993.581787,370.798553 1995.986694,399.543427 
	C1997.121338,413.104431 1997.456909,426.731049 1998.452148,440.306152 
	C1998.605469,442.397491 1996.349487,446.962311 2002.000000,446.000000 
	C2002.000000,470.708466 2002.000000,495.416901 2001.588135,521.014648 
	C2001.450806,522.602661 2001.725342,523.301331 2002.000000,524.000000 
	C2002.000000,766.041809 2002.000000,1008.083557 2001.227295,1250.634277 
	C1999.746338,1253.969971 1998.528687,1256.775635 1998.411255,1259.626831 
	C1997.590088,1279.550049 1996.987915,1299.482544 1996.332886,1319.412598 
	C1995.655762,1340.013184 1994.906616,1360.612061 1994.354248,1381.216064 
	C1993.596802,1409.470581 1992.683228,1437.726196 1992.396851,1465.987061 
	C1991.917358,1513.283569 1991.967651,1560.585205 1991.633545,1607.883545 
	C1991.302002,1654.817749 1990.544556,1701.749878 1990.394897,1748.684326 
	C1990.258057,1791.587891 1989.190430,1834.446533 1986.337036,1877.257324 
	C1984.990845,1897.455688 1984.122559,1917.697266 1982.256470,1937.846924 
	C1979.228149,1970.545044 1975.980713,2003.234985 1972.039429,2035.833130 
	C1968.049805,2068.829590 1961.687866,2101.430664 1951.919434,2133.256104 
	C1950.124023,2139.105469 1948.112671,2144.856689 1941.814453,2148.505371 
	C1904.983521,2169.842285 1868.205688,2191.284668 1831.778931,2213.302002 
	C1798.755737,2233.261719 1764.000488,2247.768555 1725.815308,2255.123291 
	C1674.415283,2265.023682 1622.665527,2270.942871 1570.474854,2272.795410 
	C1539.242920,2273.904053 1507.934570,2273.408691 1476.671021,2272.935791 
	C1436.098511,2272.322510 1395.541016,2270.712646 1354.968506,2270.101562 
	C1323.037354,2269.620605 1291.092896,2270.106934 1259.155151,2269.973877 
	C1219.520020,2269.808838 1180.105103,2272.882324 1140.861450,2278.100830 
	C1124.720337,2280.247070 1108.704590,2283.368164 1092.677246,2286.293945 
	C1090.904175,2286.617432 1086.881592,2285.474609 1088.000000,2290.000000 
	C1081.938843,2290.000000 1075.877563,2290.000000 1068.623291,2289.327637 
	C1058.844238,2286.433105 1050.363159,2283.597412 1041.651978,2282.105225 
	C1017.343994,2277.941650 992.819214,2278.023926 968.321472,2280.047607 
	C942.277710,2282.199463 916.265869,2284.741943 890.254517,2287.262207 
	C889.422424,2287.343018 888.747986,2289.050781 888.000000,2290.000000 
M1461.034180,336.086151 
	C1464.972900,329.513977 1469.405029,323.181091 1472.735352,316.313843 
	C1477.803345,305.862976 1483.160522,295.347534 1486.375854,284.273315 
	C1488.612305,276.570984 1488.556030,267.748596 1487.550537,259.672302 
	C1486.243774,249.176208 1478.078125,243.769928 1467.472900,244.491867 
	C1462.822144,244.808456 1458.198364,245.515625 1453.548218,245.849625 
	C1413.000610,248.762222 1372.474487,252.055023 1331.894043,254.410843 
	C1273.016113,257.828888 1214.128174,262.050232 1155.190430,263.233185 
	C1068.554810,264.972076 981.870056,264.169037 895.209290,264.841736 
	C877.589172,264.978516 859.847229,265.831299 842.396545,268.134979 
	C799.393738,273.811829 761.056091,290.555145 728.430481,319.544281 
	C694.228516,349.934021 671.889282,388.251740 655.307007,430.239319 
	C649.992310,443.696503 648.036682,457.952911 649.691162,472.466736 
	C651.325928,486.806274 659.448914,493.994995 673.816589,493.425140 
	C680.779785,493.148956 687.772156,492.184052 694.627686,490.880585 
	C716.543579,486.713715 738.301453,481.625916 760.308105,478.049286 
	C786.265015,473.830627 812.352783,470.199463 838.503113,467.446777 
	C867.966736,464.345306 897.560913,462.477081 927.104858,460.155945 
	C930.662537,459.876465 934.261108,460.117920 939.037781,460.117920 
	C937.005737,475.170868 935.225769,488.973145 933.267700,502.750153 
	C926.190552,552.545105 919.056702,602.331909 911.938293,652.120972 
	C904.914062,701.251343 897.867981,750.378540 890.857971,799.510925 
	C883.894897,848.314148 876.974731,897.123474 870.017761,945.927551 
	C862.966858,995.390503 855.882996,1044.848877 848.833984,1094.312134 
	C841.879028,1143.115234 834.947449,1191.921631 828.009583,1240.727295 
	C821.071838,1289.532715 814.154297,1338.340820 807.199707,1387.143799 
	C800.151062,1436.606567 792.984497,1486.052490 786.023804,1535.527466 
	C779.248901,1583.682495 772.988159,1631.912231 765.876099,1680.016602 
	C762.028931,1706.038330 756.953247,1731.888916 748.018250,1756.775757 
	C740.437622,1777.890259 729.386963,1796.838501 710.823486,1810.048096 
	C700.297119,1817.538574 688.899109,1823.982666 677.343079,1829.805176 
	C660.694519,1838.193848 643.666870,1845.866821 626.580872,1853.341919 
	C601.427917,1864.346313 581.559875,1881.638306 565.681763,1903.676880 
	C548.235962,1927.890991 534.731873,1954.213013 525.175720,1982.501099 
	C521.001770,1994.856812 518.139282,2007.518066 518.088318,2020.656372 
	C518.001709,2042.999023 528.098755,2051.136963 549.799438,2045.291016 
	C565.217102,2041.137573 580.449585,2036.195679 595.544983,2030.970947 
	C619.205322,2022.781860 643.176941,2015.960083 667.954163,2012.144287 
	C732.297668,2002.235229 796.164001,2005.029785 859.577087,2019.426392 
	C891.069580,2026.576172 922.440002,2034.296997 954.041138,2040.922607 
	C974.889648,2045.293945 995.991577,2048.527832 1017.512573,2047.121582 
	C1058.677490,2044.432129 1095.160400,2029.530151 1128.040771,2005.145508 
	C1160.543335,1981.040771 1187.306519,1951.369995 1209.365112,1917.731934 
	C1220.084595,1901.385498 1228.274170,1883.335449 1237.038696,1865.771851 
	C1240.907104,1858.019775 1242.868530,1849.492432 1242.129639,1840.570679 
	C1240.919678,1825.961060 1230.455566,1818.490723 1216.321777,1822.718140 
	C1209.962280,1824.620239 1203.705933,1827.080200 1197.700439,1829.917358 
	C1166.393188,1844.707153 1133.132080,1848.769531 1099.194336,1846.321533 
	C1070.653564,1844.262939 1042.255981,1840.147827 1013.821167,1836.725830 
	C1001.993652,1835.302368 990.233948,1833.314941 976.547913,1831.305786 
	C978.991699,1827.422607 980.227295,1824.501221 982.278625,1822.362183 
	C992.072937,1812.150391 999.700806,1800.482788 1006.009888,1787.912964 
	C1018.965027,1762.102295 1027.581299,1734.850342 1031.941650,1706.345703 
	C1037.179443,1672.104858 1041.911133,1637.786743 1046.881470,1603.504883 
	C1054.575928,1550.433960 1062.296997,1497.366821 1069.988159,1444.295410 
	C1076.963013,1396.167847 1083.901855,1348.035156 1090.877075,1299.907715 
	C1098.568970,1246.836426 1106.293945,1193.769775 1113.986938,1140.698730 
	C1120.963257,1092.571411 1127.900879,1044.438721 1134.883423,996.312378 
	C1142.535400,943.571899 1150.247803,890.840210 1157.881836,838.097107 
	C1165.515991,785.353210 1173.057861,732.596008 1180.691284,679.851929 
	C1189.803467,616.889832 1198.960205,553.934265 1208.120483,490.979126 
	C1210.078613,477.521118 1212.134399,464.077332 1214.211670,450.181580 
	C1219.351440,449.376373 1223.881592,448.354126 1228.463257,448.000275 
	C1255.700195,445.896545 1282.951660,443.979279 1310.193359,441.935974 
	C1330.123535,440.441101 1349.972778,438.687714 1369.540527,434.022095 
	C1396.667603,427.554108 1417.378540,412.893372 1431.279785,388.685547 
	C1434.100098,383.774323 1436.948486,378.878784 1439.726929,373.943939 
	C1446.592529,361.750488 1453.424805,349.538391 1461.034180,336.086151 
z"/>
<path fill="#000101" opacity="1.000000" stroke="none" 
	d="
M1763.062744,2.000010 
	C1763.436523,3.020151 1763.095581,4.684014 1762.277222,4.966874 
	C1738.099243,13.324289 1714.042847,22.105148 1689.565186,29.485939 
	C1680.873779,32.106686 1671.150269,31.714518 1661.880005,31.931135 
	C1627.922974,32.724594 1594.249634,36.455475 1560.651733,41.090511 
	C1481.810181,51.967239 1404.412354,70.188652 1326.712402,86.914047 
	C1286.072388,95.662018 1245.262939,103.628113 1204.491821,111.754974 
	C1199.314453,112.786964 1193.906616,112.956818 1188.601318,112.998695 
	C1170.270996,113.143372 1151.931030,113.392059 1133.608765,112.981277 
	C1100.348877,112.235619 1067.099365,111.030380 1033.844849,110.044449 
	C1010.233215,109.344414 986.614319,108.847832 963.009277,107.975616 
	C931.446472,106.809372 899.896118,105.310463 868.335815,104.072029 
	C855.704346,103.576378 843.062317,103.245102 830.422058,103.096748 
	C793.786560,102.666771 757.129028,101.445236 720.518494,102.259140 
	C678.325378,103.197151 636.129761,105.320030 594.012146,108.095268 
	C506.433655,113.866035 420.387115,128.743225 336.274841,154.097794 
	C281.400696,170.638885 228.232819,191.516342 177.225815,217.749054 
	C174.895782,218.947388 172.206650,220.090714 170.643494,222.031754 
	C161.080490,233.906479 147.870636,240.046600 134.403778,245.945969 
	C117.074478,253.537384 99.413231,260.516357 82.634819,269.190247 
	C45.978497,288.140381 23.804382,319.133118 12.257472,358.129211 
	C9.436290,367.656891 7.820412,377.539032 5.532794,387.230408 
	C5.262925,388.373657 4.244649,389.340240 2.786650,390.194366 
	C2.000000,260.719299 2.000000,131.438583 2.000000,2.000000 
	C588.708435,2.000000 1175.416870,2.000000 1763.062744,2.000010 
z"/>
<path fill="#000101" opacity="1.000000" stroke="none" 
	d="
M2.000000,506.937317 
	C5.934839,506.264557 5.397251,509.324219 5.665767,511.873871 
	C7.020766,524.740112 7.974696,537.663452 9.799480,550.462646 
	C15.329266,589.249268 21.192532,627.988220 26.932100,666.744873 
	C34.083302,715.033630 41.690601,763.261108 48.176712,811.638916 
	C50.816631,831.329224 50.971363,851.349060 52.371593,871.210938 
	C52.898750,878.688477 53.750629,886.143127 54.466827,893.739197 
	C61.311325,894.109985 61.222000,887.486328 66.096878,884.359558 
	C66.862595,887.320618 67.601158,889.856750 68.169769,892.430420 
	C70.741524,904.070923 72.868004,915.827942 75.932007,927.336060 
	C78.382416,936.539490 83.659615,944.107544 91.798134,949.619629 
	C98.819427,954.375000 103.889061,960.864197 107.059052,968.850525 
	C109.062943,973.898926 109.463974,978.707703 108.843620,984.286255 
	C106.019844,1009.679138 103.507248,1035.128296 101.826355,1060.619507 
	C100.580353,1079.515259 99.695587,1098.557861 100.587547,1117.443604 
	C102.072433,1148.883911 104.624207,1180.297485 107.641014,1211.634399 
	C110.277405,1239.019897 114.101387,1266.293335 117.582329,1293.593018 
	C118.171021,1298.209961 116.364388,1301.414551 113.037346,1303.923706 
	C107.738678,1307.919434 102.539642,1312.198486 96.759514,1315.377930 
	C74.067528,1327.859863 62.717880,1348.288818 56.343121,1372.190186 
	C52.053959,1388.271851 49.677498,1404.624756 49.484215,1421.375854 
	C49.381668,1430.263184 47.788445,1439.215088 46.049702,1447.975464 
	C44.704098,1454.755005 42.864559,1455.406616 36.297337,1453.933594 
	C26.131203,1451.653687 20.332336,1454.716309 17.819517,1465.011597 
	C16.427011,1470.716797 15.791702,1476.985474 16.554192,1482.770996 
	C19.463980,1504.849854 15.995699,1526.436523 12.912593,1548.132568 
	C10.252007,1566.855103 7.168178,1585.594849 6.051895,1604.432617 
	C5.293110,1617.237183 6.142432,1630.553589 8.951846,1643.038330 
	C11.895377,1656.119263 9.739697,1668.597412 9.298613,1681.388062 
	C8.680627,1699.308350 7.956922,1717.293213 8.808270,1735.177734 
	C9.737981,1754.708252 12.183507,1774.181641 14.379003,1793.633545 
	C17.965502,1825.409302 18.564995,1857.277344 18.531279,1889.209473 
	C18.524479,1895.649902 19.504358,1902.895386 22.550463,1908.365845 
	C28.662937,1919.343262 29.033112,1930.612671 27.414351,1942.261597 
	C24.952272,1959.979736 22.180605,1977.661621 19.140436,1995.289917 
	C17.438311,2005.159424 18.551741,2014.041260 23.426353,2023.066650 
	C43.750088,2060.696777 66.597427,2096.352051 97.398956,2126.556396 
	C131.437897,2159.935791 171.996323,2179.412109 219.111847,2184.890869 
	C247.203232,2188.157227 275.435425,2188.140869 303.771393,2187.372070 
	C338.666077,2186.424805 373.590973,2187.645020 407.569641,2197.770020 
	C432.829376,2205.296875 455.371368,2217.646973 475.917511,2233.931396 
	C478.726501,2236.157715 481.610596,2238.289795 484.848694,2240.762207 
	C491.761017,2229.363770 494.709045,2216.368652 504.238007,2205.709717 
	C508.111298,2214.937500 505.535675,2223.139404 505.653473,2231.156250 
	C505.773499,2239.325439 505.715057,2247.497314 505.739044,2257.454590 
	C510.011627,2254.928467 512.372437,2253.532715 515.543213,2251.657959 
	C524.929260,2262.360107 526.284912,2276.991455 533.561035,2289.440430 
	C356.733612,2290.000000 179.467239,2290.000000 2.000000,2290.000000 
	C2.000000,1695.958252 2.000000,1101.916382 2.000000,506.937317 
z"/>
<path fill="#000101" opacity="1.000000" stroke="none" 
	d="
M1088.937256,2290.000000 
	C1086.881592,2285.474609 1090.904175,2286.617432 1092.677246,2286.293945 
	C1108.704590,2283.368164 1124.720337,2280.247070 1140.861450,2278.100830 
	C1180.105103,2272.882324 1219.520020,2269.808838 1259.155151,2269.973877 
	C1291.092896,2270.106934 1323.037354,2269.620605 1354.968506,2270.101562 
	C1395.541016,2270.712646 1436.098511,2272.322510 1476.671021,2272.935791 
	C1507.934570,2273.408691 1539.242920,2273.904053 1570.474854,2272.795410 
	C1622.665527,2270.942871 1674.415283,2265.023682 1725.815308,2255.123291 
	C1764.000488,2247.768555 1798.755737,2233.261719 1831.778931,2213.302002 
	C1868.205688,2191.284668 1904.983521,2169.842285 1941.814453,2148.505371 
	C1948.112671,2144.856689 1950.124023,2139.105469 1951.919434,2133.256104 
	C1961.687866,2101.430664 1968.049805,2068.829590 1972.039429,2035.833130 
	C1975.980713,2003.234985 1979.228149,1970.545044 1982.256470,1937.846924 
	C1984.122559,1917.697266 1984.990845,1897.455688 1986.337036,1877.257324 
	C1989.190430,1834.446533 1990.258057,1791.587891 1990.394897,1748.684326 
	C1990.544556,1701.749878 1991.302002,1654.817749 1991.633545,1607.883545 
	C1991.967651,1560.585205 1991.917358,1513.283569 1992.396851,1465.987061 
	C1992.683228,1437.726196 1993.596802,1409.470581 1994.354248,1381.216064 
	C1994.906616,1360.612061 1995.655762,1340.013184 1996.332886,1319.412598 
	C1996.987915,1299.482544 1997.590088,1279.550049 1998.411255,1259.626831 
	C1998.528687,1256.775635 1999.746338,1253.969971 2001.227295,1251.571533 
	C2002.000000,1597.844849 2002.000000,1943.689819 2002.000000,2290.000000 
	C1697.958374,2290.000000 1393.916504,2290.000000 1088.937256,2290.000000 
z"/>
<path fill="#000201" opacity="1.000000" stroke="none" 
	d="
M2002.000000,445.062683 
	C1996.349487,446.962311 1998.605469,442.397491 1998.452148,440.306152 
	C1997.456909,426.731049 1997.121338,413.104431 1995.986694,399.543427 
	C1993.581787,370.798553 1991.554321,341.992340 1988.000854,313.381531 
	C1984.324463,283.780365 1979.527100,254.291565 1974.307495,224.915756 
	C1967.865601,188.660828 1953.642090,154.925369 1938.682129,121.538773 
	C1928.051880,97.814804 1915.429077,75.184822 1899.247559,54.752258 
	C1881.212524,31.979443 1859.919800,13.453380 1831.405029,4.815958 
	C1830.499512,4.541657 1829.744141,3.772404 1829.459351,2.616938 
	C1887.251831,2.000000 1944.503540,2.000000 2002.000000,2.000000 
	C2002.000000,149.375031 2002.000000,296.750214 2002.000000,445.062683 
z"/>
<path fill="#010302" opacity="1.000000" stroke="none" 
	d="
M590.937317,2290.000000 
	C589.293091,2283.422852 588.227051,2276.859863 587.963440,2270.264893 
	C587.568115,2260.376221 587.644653,2250.464111 587.744507,2240.564209 
	C587.763550,2238.671631 588.284607,2235.647705 589.482788,2235.086670 
	C597.586975,2231.292969 596.890503,2222.999512 599.420593,2216.467529 
	C601.640991,2210.735352 603.080688,2204.700684 605.998535,2198.883789 
	C616.617310,2226.814209 614.134155,2256.728271 620.907104,2286.648193 
	C622.715088,2284.189697 623.866150,2282.914307 624.689453,2281.454590 
	C628.109131,2275.389404 631.041809,2269.011719 634.872681,2263.224854 
	C641.654297,2252.980225 651.270630,2251.060791 661.549500,2257.823486 
	C666.800781,2261.278320 671.514709,2265.549805 676.469360,2269.455078 
	C682.210938,2273.980469 687.602173,2279.065918 693.765320,2282.916504 
	C705.593628,2290.306152 716.004578,2287.673340 723.907654,2276.181152 
	C725.783752,2273.453369 727.576416,2270.594971 729.861572,2268.236816 
	C734.980713,2262.954346 739.766235,2262.489014 745.933350,2266.366943 
	C747.896423,2267.601562 749.719482,2269.085449 751.493164,2270.589111 
	C758.575256,2276.593018 765.612671,2282.649414 772.333252,2289.343262 
	C711.958191,2290.000000 651.916443,2290.000000 590.937317,2290.000000 
z"/>
<path fill="#010503" opacity="1.000000" stroke="none" 
	d="
M542.937073,2290.000000 
	C542.389038,2288.120605 542.548950,2286.156494 543.205872,2284.375977 
	C546.346191,2275.864258 548.009155,2267.186523 547.724426,2258.034912 
	C547.497437,2250.738525 547.973633,2243.410889 548.361877,2236.109131 
	C548.497375,2233.559814 549.302673,2231.046631 549.766418,2228.697266 
	C558.725525,2228.266602 559.247070,2228.332031 560.262390,2220.248047 
	C561.288269,2212.080078 561.444214,2203.759033 561.322754,2195.515137 
	C561.283142,2192.827637 559.877136,2189.314453 557.872864,2187.667480 
	C552.757935,2183.464355 552.994934,2178.480469 554.559937,2173.206543 
	C556.041565,2168.213867 558.110901,2163.395508 559.921692,2158.500488 
	C560.668701,2158.467285 561.415649,2158.434326 562.162598,2158.401367 
	C563.495300,2162.241455 565.521606,2165.990479 566.041626,2169.937500 
	C568.376892,2187.664062 570.242432,2205.451416 572.358093,2223.207520 
	C574.277954,2239.320068 576.011353,2255.464355 578.433960,2271.502930 
	C579.310974,2277.309326 581.947571,2282.849609 583.890625,2289.255859 
	C570.624695,2290.000000 557.249451,2290.000000 542.937073,2290.000000 
z"/>
<path fill="#020101" opacity="1.000000" stroke="none" 
	d="
M888.937378,2290.000000 
	C888.747986,2289.050781 889.422424,2287.343018 890.254517,2287.262207 
	C916.265869,2284.741943 942.277710,2282.199463 968.321472,2280.047607 
	C992.819214,2278.023926 1017.343994,2277.941650 1041.651978,2282.105225 
	C1050.363159,2283.597412 1058.844238,2286.433105 1067.715088,2289.327637 
	C1008.624878,2290.000000 949.249756,2290.000000 888.937378,2290.000000 
z"/>
<path fill="#010302" opacity="1.000000" stroke="none" 
	d="
M782.921265,2290.000000 
	C787.058228,2282.217773 792.116455,2274.435791 797.897217,2265.542236 
	C805.173340,2272.798340 805.517395,2280.745850 806.293823,2289.203125 
	C798.614197,2290.000000 791.228333,2290.000000 782.921265,2290.000000 
z"/>
<path fill="#104532" opacity="1.000000" stroke="none" 
	d="
M2002.000000,523.500000 
	C2001.725342,523.301331 2001.450806,522.602661 2001.588135,521.952026 
	C2002.000000,522.000000 2002.000000,523.000000 2002.000000,523.500000 
z"/>
<path fill="#FEFFFF" opacity="1.000000" stroke="none" 
	d="
M1460.652344,336.709961 
	C1453.424805,349.538391 1446.592529,361.750488 1439.726929,373.943939 
	C1436.948486,378.878784 1434.100098,383.774323 1431.279785,388.685547 
	C1417.378540,412.893372 1396.667603,427.554108 1369.540527,434.022095 
	C1349.972778,438.687714 1330.123535,440.441101 1310.193359,441.935974 
	C1282.951660,443.979279 1255.700195,445.896545 1228.463257,448.000275 
	C1223.881592,448.354126 1219.351440,449.376373 1214.211670,450.181580 
	C1212.134399,464.077332 1210.078613,477.521118 1208.120483,490.979126 
	C1198.960205,553.934265 1189.803467,616.889832 1180.691284,679.851929 
	C1173.057861,732.596008 1165.515991,785.353210 1157.881836,838.097107 
	C1150.247803,890.840210 1142.535400,943.571899 1134.883423,996.312378 
	C1127.900879,1044.438721 1120.963257,1092.571411 1113.986938,1140.698730 
	C1106.293945,1193.769775 1098.568970,1246.836426 1090.877075,1299.907715 
	C1083.901855,1348.035156 1076.963013,1396.167847 1069.988159,1444.295410 
	C1062.296997,1497.366821 1054.575928,1550.433960 1046.881470,1603.504883 
	C1041.911133,1637.786743 1037.179443,1672.104858 1031.941650,1706.345703 
	C1027.581299,1734.850342 1018.965027,1762.102295 1006.009888,1787.912964 
	C999.700806,1800.482788 992.072937,1812.150391 982.278625,1822.362183 
	C980.227295,1824.501221 978.991699,1827.422607 976.547913,1831.305786 
	C990.233948,1833.314941 1001.993652,1835.302368 1013.821167,1836.725830 
	C1042.255981,1840.147827 1070.653564,1844.262939 1099.194336,1846.321533 
	C1133.132080,1848.769531 1166.393188,1844.707153 1197.700439,1829.917358 
	C1203.705933,1827.080200 1209.962280,1824.620239 1216.321777,1822.718140 
	C1230.455566,1818.490723 1240.919678,1825.961060 1242.129639,1840.570679 
	C1242.868530,1849.492432 1240.907104,1858.019775 1237.038696,1865.771851 
	C1228.274170,1883.335449 1220.084595,1901.385498 1209.365112,1917.731934 
	C1187.306519,1951.369995 1160.543335,1981.040771 1128.040771,2005.145508 
	C1095.160400,2029.530151 1058.677490,2044.432129 1017.512573,2047.121582 
	C995.991577,2048.527832 974.889648,2045.293945 954.041138,2040.922607 
	C922.440002,2034.296997 891.069580,2026.576172 859.577087,2019.426392 
	C796.164001,2005.029785 732.297668,2002.235229 667.954163,2012.144287 
	C643.176941,2015.960083 619.205322,2022.781860 595.544983,2030.970947 
	C580.449585,2036.195679 565.217102,2041.137573 549.799438,2045.291016 
	C528.098755,2051.136963 518.001709,2042.999023 518.088318,2020.656372 
	C518.139282,2007.518066 521.001770,1994.856812 525.175720,1982.501099 
	C534.731873,1954.213013 548.235962,1927.890991 565.681763,1903.676880 
	C581.559875,1881.638306 601.427917,1864.346313 626.580872,1853.341919 
	C643.666870,1845.866821 660.694519,1838.193848 677.343079,1829.805176 
	C688.899109,1823.982666 700.297119,1817.538574 710.823486,1810.048096 
	C729.386963,1796.838501 740.437622,1777.890259 748.018250,1756.775757 
	C756.953247,1731.888916 762.028931,1706.038330 765.876099,1680.016602 
	C772.988159,1631.912231 779.248901,1583.682495 786.023804,1535.527466 
	C792.984497,1486.052490 800.151062,1436.606567 807.199707,1387.143799 
	C814.154297,1338.340820 821.071838,1289.532715 828.009583,1240.727295 
	C834.947449,1191.921631 841.879028,1143.115234 848.833984,1094.312134 
	C855.882996,1044.848877 862.966858,995.390503 870.017761,945.927551 
	C876.974731,897.123474 883.894897,848.314148 890.857971,799.510925 
	C897.867981,750.378540 904.914062,701.251343 911.938293,652.120972 
	C919.056702,602.331909 926.190552,552.545105 933.267700,502.750153 
	C935.225769,488.973145 937.005737,475.170868 939.037781,460.117920 
	C934.261108,460.117920 930.662537,459.876465 927.104858,460.155945 
	C897.560913,462.477081 867.966736,464.345306 838.503113,467.446777 
	C812.352783,470.199463 786.265015,473.830627 760.308105,478.049286 
	C738.301453,481.625916 716.543579,486.713715 694.627686,490.880585 
	C687.772156,492.184052 680.779785,493.148956 673.816589,493.425140 
	C659.448914,493.994995 651.325928,486.806274 649.691162,472.466736 
	C648.036682,457.952911 649.992310,443.696503 655.307007,430.239319 
	C671.889282,388.251740 694.228516,349.934021 728.430481,319.544281 
	C761.056091,290.555145 799.393738,273.811829 842.396545,268.134979 
	C859.847229,265.831299 877.589172,264.978516 895.209290,264.841736 
	C981.870056,264.169037 1068.554810,264.972076 1155.190430,263.233185 
	C1214.128174,262.050232 1273.016113,257.828888 1331.894043,254.410843 
	C1372.474487,252.055023 1413.000610,248.762222 1453.548218,245.849625 
	C1458.198364,245.515625 1462.822144,244.808456 1467.472900,244.491867 
	C1478.078125,243.769928 1486.243774,249.176208 1487.550537,259.672302 
	C1488.556030,267.748596 1488.612305,276.570984 1486.375854,284.273315 
	C1483.160522,295.347534 1477.803345,305.862976 1472.735352,316.313843 
	C1469.405029,323.181091 1464.972900,329.513977 1460.652344,336.709961 
z"/>
</svg>